<svg width="51" height="51" viewBox="0 0 51 51" fill="none" xmlns="http://www.w3.org/2000/svg">
<g id="Component 4">
<g id="Ellipse 8" filter="url(#filter0_ii_57_2896)">
<circle cx="25.5" cy="25.5" r="25.5" fill="url(#paint0_linear_57_2896)"/>
</g>
<path id="Vector" d="M26.7273 20C26.7273 17.2375 24.5305 15 21.8182 15C19.1059 15 16.9091 17.2375 16.9091 20C16.9091 22.7625 19.1059 25 21.8182 25C24.5305 25 26.7273 22.7625 26.7273 20ZM29.1818 22.5V25H32.8636V28.75H35.3182V25H39V22.5H35.3182V18.75H32.8636V22.5H29.1818ZM12 32.5V35H31.6364V32.5C31.6364 29.175 25.095 27.5 21.8182 27.5C18.5414 27.5 12 29.175 12 32.5Z" fill="white"/>
</g>
<defs>
<filter id="filter0_ii_57_2896" x="0" y="-3" width="54" height="55" filterUnits="userSpaceOnUse" color-interpolation-filters="sRGB">
<feFlood flood-opacity="0" result="BackgroundImageFix"/>
<feBlend mode="normal" in="SourceGraphic" in2="BackgroundImageFix" result="shape"/>
<feColorMatrix in="SourceAlpha" type="matrix" values="0 0 0 0 0 0 0 0 0 0 0 0 0 0 0 0 0 0 127 0" result="hardAlpha"/>
<feOffset dx="3" dy="1"/>
<feGaussianBlur stdDeviation="7.5"/>
<feComposite in2="hardAlpha" operator="arithmetic" k2="-1" k3="1"/>
<feColorMatrix type="matrix" values="0 0 0 0 1 0 0 0 0 1 0 0 0 0 1 0 0 0 0.5 0"/>
<feBlend mode="overlay" in2="shape" result="effect1_innerShadow_57_2896"/>
<feColorMatrix in="SourceAlpha" type="matrix" values="0 0 0 0 0 0 0 0 0 0 0 0 0 0 0 0 0 0 127 0" result="hardAlpha"/>
<feOffset dy="-3"/>
<feGaussianBlur stdDeviation="5"/>
<feComposite in2="hardAlpha" operator="arithmetic" k2="-1" k3="1"/>
<feColorMatrix type="matrix" values="0 0 0 0 0 0 0 0 0 0 0 0 0 0 0 0 0 0 0.4 0"/>
<feBlend mode="overlay" in2="effect1_innerShadow_57_2896" result="effect2_innerShadow_57_2896"/>
</filter>
<linearGradient id="paint0_linear_57_2896" x1="51" y1="51" x2="-1.51992e-06" y2="1.51992e-06" gradientUnits="userSpaceOnUse">
<stop stop-color="#2C5AFF"/>
<stop offset="1" stop-color="#6B7FC4"/>
</linearGradient>
</defs>
</svg>
