<svg width="302" height="156" viewBox="0 0 302 156" fill="none" xmlns="http://www.w3.org/2000/svg">
<rect x="0.5" y="0.5" width="301" height="155" fill="white" stroke="#476BEC"/>
<rect width="172" height="26" transform="translate(67 65)" fill="white"/>
<g clip-path="url(#clip0_136_8232)">
<path d="M70.25 69.3334V66.0834H72.4167V69.3334H75.6667V71.5H72.4167V74.75H70.25V71.5H67V69.3334H70.25ZM73.5 75.8334V72.5834H76.75V69.3334H84.3333L86.3158 71.5H89.75C90.9417 71.5 91.9167 72.475 91.9167 73.6667V86.6667C91.9167 87.8584 90.9417 88.8334 89.75 88.8334H72.4167C71.225 88.8334 70.25 87.8584 70.25 86.6667V75.8334H73.5ZM81.0833 85.5834C84.0733 85.5834 86.5 83.1567 86.5 80.1667C86.5 77.1767 84.0733 74.75 81.0833 74.75C78.0933 74.75 75.6667 77.1767 75.6667 80.1667C75.6667 83.1567 78.0933 85.5834 81.0833 85.5834ZM77.6167 80.1667C77.6167 82.0842 79.1658 83.6334 81.0833 83.6334C83.0008 83.6334 84.55 82.0842 84.55 80.1667C84.55 78.2492 83.0008 76.7 81.0833 76.7C79.1658 76.7 77.6167 78.2492 77.6167 80.1667Z" fill="black"/>
</g>
<path d="M104.27 74.3867C104.27 75.6367 104.058 76.8607 103.635 78.0586C103.212 79.2565 102.632 80.3177 101.896 81.2422C101.161 82.1667 100.337 82.8763 99.4258 83.3711L98.4492 82.1406C99.2956 81.724 100.064 81.1055 100.754 80.2852C101.444 79.4648 101.994 78.5339 102.404 77.4922C102.814 76.4505 103.02 75.4154 103.02 74.3867V71.2227H104.27V74.3867ZM104.523 74.3867C104.523 75.3763 104.725 76.3691 105.129 77.3652C105.533 78.3613 106.079 79.25 106.77 80.0312C107.46 80.8125 108.208 81.4049 109.016 81.8086L108.078 83.0391C107.18 82.5573 106.366 81.8704 105.637 80.9785C104.908 80.0866 104.335 79.0645 103.918 77.9121C103.501 76.7598 103.293 75.5846 103.293 74.3867V71.2227H104.523V74.3867ZM112.141 87.082H110.617V69.7188H112.141V87.082ZM115.051 78.0977H111.789V76.7695H115.051V78.0977ZM121.557 73.4492C121.557 74.4779 121.349 75.4512 120.932 76.3691C120.515 77.2871 119.936 78.0846 119.194 78.7617C118.451 79.4388 117.599 79.9531 116.635 80.3047L115.834 79.0742C116.694 78.7617 117.462 78.319 118.139 77.7461C118.816 77.1732 119.343 76.5156 119.721 75.7734C120.099 75.0312 120.287 74.2565 120.287 73.4492V71.6328H121.557V73.4492ZM121.83 73.4492C121.83 74.2174 122.019 74.9531 122.397 75.6562C122.774 76.3594 123.302 76.9779 123.979 77.5117C124.656 78.0456 125.424 78.4492 126.283 78.7227L125.502 79.9531C124.539 79.6276 123.682 79.1426 122.934 78.498C122.185 77.8535 121.602 77.0983 121.186 76.2324C120.769 75.3665 120.561 74.4388 120.561 73.4492V71.6328H121.83V73.4492ZM125.834 72.4336H116.225V71.1836H125.834V72.4336ZM129.916 82.4727H128.393V69.7383H129.916V82.4727ZM130.463 86.7109H118.705V85.4219H130.463V86.7109ZM120.229 85.9883H118.705V81.2617H120.229V85.9883ZM140.368 70.0312C141.657 70.0312 142.76 70.1452 143.678 70.373C144.596 70.6009 145.296 70.9395 145.778 71.3887C146.26 71.8379 146.5 72.3815 146.5 73.0195C146.5 73.6706 146.26 74.2207 145.778 74.6699C145.296 75.1191 144.596 75.4609 143.678 75.6953C142.76 75.9297 141.657 76.0534 140.368 76.0664C139.079 76.0534 137.975 75.9297 137.057 75.6953C136.139 75.4609 135.436 75.1191 134.948 74.6699C134.459 74.2207 134.215 73.6706 134.215 73.0195C134.215 72.3815 134.459 71.8379 134.948 71.3887C135.436 70.9395 136.139 70.6009 137.057 70.373C137.975 70.1452 139.079 70.0312 140.368 70.0312ZM140.368 71.1836C139.417 71.1836 138.6 71.2552 137.916 71.3984C137.233 71.5417 136.712 71.7533 136.354 72.0332C135.996 72.3132 135.817 72.6419 135.817 73.0195C135.817 73.4232 135.993 73.765 136.344 74.0449C136.696 74.3249 137.213 74.5365 137.897 74.6797C138.58 74.8229 139.404 74.8945 140.368 74.8945C141.331 74.8945 142.155 74.8229 142.838 74.6797C143.522 74.5365 144.043 74.3216 144.401 74.0352C144.759 73.7487 144.938 73.4102 144.938 73.0195C144.938 72.6419 144.756 72.3164 144.391 72.043C144.026 71.7695 143.502 71.5579 142.819 71.4082C142.135 71.2585 141.318 71.1836 140.368 71.1836ZM148.278 78.4883H132.457V77.2383H148.278V78.4883ZM146.246 83.8789H135.934V85.9883H134.411V82.7461H144.743V81.1641H134.371V79.9922H146.246V83.8789ZM146.774 86.8867H134.411V85.6758H146.774V86.8867ZM162.598 87.1211H161.095V80.7344H162.598V87.1211ZM169.766 81.5156H153.946V80.2266H169.766V81.5156ZM162.442 73.1562C162.442 74.1198 162.12 75.002 161.475 75.8027C160.831 76.6035 159.981 77.2676 158.927 77.7949C157.872 78.3223 156.733 78.6836 155.509 78.8789L154.942 77.6484C155.984 77.5052 156.977 77.2122 157.921 76.7695C158.865 76.3268 159.63 75.7897 160.216 75.1582C160.802 74.5267 161.095 73.8594 161.095 73.1562V72.6875H162.442V73.1562ZM162.618 73.1562C162.618 73.8464 162.908 74.5104 163.487 75.1484C164.067 75.7865 164.828 76.3268 165.772 76.7695C166.716 77.2122 167.709 77.5052 168.751 77.6484L168.184 78.8789C166.973 78.6966 165.841 78.3353 164.786 77.7949C163.731 77.2546 162.885 76.584 162.247 75.7832C161.609 74.9824 161.29 74.1068 161.29 73.1562V72.6875H162.618V73.1562ZM168.243 73.1367H155.489V71.8867H168.243V73.1367ZM162.598 72.3164H161.095V69.7188H162.598V72.3164ZM184.261 87.082H182.737V69.7188H184.261V87.082ZM187.073 78.0781H183.87V76.7891H187.073V78.0781ZM179.769 71.5938C179.769 73.2865 179.492 74.8815 178.939 76.3789C178.385 77.8763 177.516 79.2565 176.331 80.5195C175.146 81.7826 173.636 82.8698 171.8 83.7812L170.94 82.5703C172.555 81.763 173.906 80.819 174.993 79.7383C176.08 78.6576 176.897 77.4564 177.444 76.1348C177.991 74.8132 178.265 73.3841 178.265 71.8477V71.5938H179.769ZM179.046 72.8828H171.741V71.5938H179.046V72.8828ZM201.138 87.082H199.615V69.7188H201.138V87.082ZM204.048 78.1562H200.786V76.8867H204.048V78.1562ZM197.935 73.7812H187.603V72.5117H197.935V73.7812ZM192.857 75.2266C193.677 75.2266 194.409 75.3958 195.054 75.7344C195.698 76.0729 196.203 76.5449 196.568 77.1504C196.932 77.7559 197.115 78.4427 197.115 79.2109C197.115 79.9792 196.932 80.666 196.568 81.2715C196.203 81.877 195.698 82.349 195.054 82.6875C194.409 83.026 193.677 83.1953 192.857 83.1953C192.036 83.1953 191.304 83.026 190.659 82.6875C190.015 82.349 189.51 81.877 189.146 81.2715C188.781 80.666 188.599 79.9792 188.599 79.2109C188.599 78.4427 188.781 77.7559 189.146 77.1504C189.51 76.5449 190.015 76.0729 190.659 75.7344C191.304 75.3958 192.036 75.2266 192.857 75.2266ZM192.857 76.5156C192.323 76.5156 191.844 76.6296 191.421 76.8574C190.998 77.0853 190.666 77.4043 190.425 77.8145C190.184 78.2246 190.064 78.6901 190.064 79.2109C190.064 79.7318 190.184 80.194 190.425 80.5977C190.666 81.0013 190.998 81.3171 191.421 81.5449C191.844 81.7728 192.323 81.8867 192.857 81.8867C193.391 81.8867 193.869 81.7728 194.292 81.5449C194.715 81.3171 195.047 81.0013 195.288 80.5977C195.529 80.194 195.65 79.7318 195.65 79.2109C195.65 78.6901 195.529 78.2246 195.288 77.8145C195.047 77.4043 194.715 77.0853 194.292 76.8574C193.869 76.6296 193.391 76.5156 192.857 76.5156ZM193.599 73.0977H192.075V69.9336H193.599V73.0977ZM214.89 77.2578H211.472V75.9492H214.89V77.2578ZM209.46 74.7188C209.46 75.9036 209.294 77.0625 208.962 78.1953C208.63 79.3281 208.155 80.3405 207.537 81.2324C206.918 82.1243 206.192 82.8242 205.359 83.332L204.382 82.1797C205.164 81.724 205.847 81.099 206.433 80.3047C207.019 79.5104 207.468 78.6283 207.781 77.6582C208.093 76.6882 208.249 75.7083 208.249 74.7188V71.3594H209.46V74.7188ZM209.734 74.6602C209.734 75.5846 209.88 76.5091 210.173 77.4336C210.466 78.3581 210.889 79.2012 211.443 79.9629C211.996 80.7246 212.644 81.3268 213.386 81.7695L212.507 82.9609C211.687 82.4661 210.981 81.7793 210.388 80.9004C209.796 80.0215 209.343 79.0417 209.031 77.9609C208.718 76.8802 208.562 75.7799 208.562 74.6602V71.3594H209.734V74.6602ZM219.46 87.082H217.976V69.7188H219.46V87.082ZM215.867 86.2031H214.421V70.0898H215.867V86.2031ZM226.904 83.8789H225.4V78.6836H226.904V83.8789ZM233.408 83.8789H231.865V78.6836H233.408V83.8789ZM237.353 84.8555H221.455V83.5664H237.353V84.8555ZM229.365 70.8125C230.602 70.8125 231.699 70.998 232.656 71.3691C233.613 71.7402 234.362 72.2643 234.902 72.9414C235.442 73.6185 235.713 74.3997 235.713 75.2852C235.713 76.1706 235.442 76.9486 234.902 77.6191C234.362 78.2897 233.613 78.8105 232.656 79.1816C231.699 79.5527 230.602 79.7383 229.365 79.7383C228.141 79.7383 227.047 79.5527 226.084 79.1816C225.12 78.8105 224.368 78.2897 223.828 77.6191C223.287 76.9486 223.017 76.1706 223.017 75.2852C223.017 74.3997 223.287 73.6185 223.828 72.9414C224.368 72.2643 225.12 71.7402 226.084 71.3691C227.047 70.998 228.141 70.8125 229.365 70.8125ZM229.365 72.082C228.427 72.069 227.591 72.196 226.855 72.4629C226.119 72.7298 225.543 73.1074 225.127 73.5957C224.71 74.084 224.502 74.6471 224.502 75.2852C224.502 75.9232 224.71 76.4863 225.127 76.9746C225.543 77.4629 226.119 77.8438 226.855 78.1172C227.591 78.3906 228.427 78.5273 229.365 78.5273C230.302 78.5273 231.139 78.3906 231.875 78.1172C232.61 77.8438 233.187 77.4629 233.603 76.9746C234.02 76.4863 234.228 75.9232 234.228 75.2852C234.228 74.6471 234.02 74.084 233.603 73.5957C233.187 73.1074 232.61 72.7298 231.875 72.4629C231.139 72.196 230.302 72.069 229.365 72.082Z" fill="black"/>
<defs>
<clipPath id="clip0_136_8232">
<rect width="26" height="26" fill="white" transform="translate(67 65)"/>
</clipPath>
</defs>
</svg>
