<svg width="243" height="215" viewBox="0 0 243 215" fill="none" xmlns="http://www.w3.org/2000/svg">
<rect x="0.5" y="0.5" width="241.095" height="214" fill="white" stroke="#476BEC"/>
<rect width="137.882" height="35.8333" transform="translate(53.71 89.5833)" fill="white"/>
<g clip-path="url(#clip0_136_8232)">
<path d="M55.5259 99.8333V96.9583H57.4425V99.8333H60.3175V101.75H57.4425V104.625H55.5259V101.75H52.6509V99.8333H55.5259ZM58.4009 105.583V102.708H61.2759V99.8333H67.9842L69.738 101.75H72.7759C73.83 101.75 74.6925 102.612 74.6925 103.667V115.167C74.6925 116.221 73.83 117.083 72.7759 117.083H57.4425C56.3884 117.083 55.5259 116.221 55.5259 115.167V105.583H58.4009ZM65.1092 114.208C67.7542 114.208 69.9009 112.062 69.9009 109.417C69.9009 106.772 67.7542 104.625 65.1092 104.625C62.4642 104.625 60.3175 106.772 60.3175 109.417C60.3175 112.062 62.4642 114.208 65.1092 114.208ZM62.0425 109.417C62.0425 111.113 63.413 112.483 65.1092 112.483C66.8055 112.483 68.1759 111.113 68.1759 109.417C68.1759 107.72 66.8055 106.35 65.1092 106.35C63.413 106.35 62.0425 107.72 62.0425 109.417Z" fill="black"/>
</g>
<path d="M85.6665 104.109C85.6665 105.109 85.4972 106.088 85.1587 107.047C84.8201 108.005 84.3566 108.854 83.7681 109.594C83.1795 110.333 82.5207 110.901 81.7915 111.297L81.0103 110.312C81.6873 109.979 82.3019 109.484 82.854 108.828C83.4061 108.172 83.8462 107.427 84.1743 106.594C84.5024 105.76 84.6665 104.932 84.6665 104.109V101.578H85.6665V104.109ZM85.8696 104.109C85.8696 104.901 86.0311 105.695 86.354 106.492C86.6769 107.289 87.1144 108 87.6665 108.625C88.2186 109.25 88.8175 109.724 89.4634 110.047L88.7134 111.031C87.9946 110.646 87.3436 110.096 86.7603 109.383C86.1769 108.669 85.7186 107.851 85.3853 106.93C85.0519 106.008 84.8853 105.068 84.8853 104.109V101.578H85.8696V104.109ZM91.9634 114.266H90.7446V100.375H91.9634V114.266ZM94.2915 107.078H91.6821V106.016H94.2915V107.078ZM99.4148 103.359C99.4148 104.182 99.2481 104.961 98.9148 105.695C98.5814 106.43 98.1179 107.068 97.5241 107.609C96.9304 108.151 96.2481 108.562 95.4773 108.844L94.8366 107.859C95.5241 107.609 96.1387 107.255 96.6804 106.797C97.222 106.338 97.6439 105.812 97.946 105.219C98.2481 104.625 98.3991 104.005 98.3991 103.359V101.906H99.4148V103.359ZM99.6335 103.359C99.6335 103.974 99.7845 104.562 100.087 105.125C100.389 105.687 100.811 106.182 101.352 106.609C101.894 107.036 102.509 107.359 103.196 107.578L102.571 108.562C101.8 108.302 101.115 107.914 100.516 107.398C99.9174 106.883 99.4512 106.279 99.1179 105.586C98.7845 104.893 98.6179 104.151 98.6179 103.359V101.906H99.6335V103.359ZM102.837 102.547H95.1491V101.547H102.837V102.547ZM106.102 110.578H104.884V100.391H106.102V110.578ZM106.54 113.969H97.1335V112.937H106.54V113.969ZM98.3523 113.391H97.1335V109.609H98.3523V113.391ZM114.382 100.625C115.413 100.625 116.296 100.716 117.03 100.898C117.765 101.081 118.324 101.351 118.71 101.711C119.095 102.07 119.288 102.505 119.288 103.016C119.288 103.536 119.095 103.976 118.71 104.336C118.324 104.695 117.765 104.969 117.03 105.156C116.296 105.344 115.413 105.443 114.382 105.453C113.351 105.443 112.468 105.344 111.733 105.156C110.999 104.969 110.436 104.695 110.046 104.336C109.655 103.976 109.46 103.536 109.46 103.016C109.46 102.505 109.655 102.07 110.046 101.711C110.436 101.351 110.999 101.081 111.733 100.898C112.468 100.716 113.351 100.625 114.382 100.625ZM114.382 101.547C113.621 101.547 112.968 101.604 112.421 101.719C111.874 101.833 111.457 102.002 111.171 102.226C110.884 102.45 110.741 102.713 110.741 103.016C110.741 103.338 110.882 103.612 111.163 103.836C111.444 104.06 111.858 104.229 112.405 104.344C112.952 104.458 113.611 104.516 114.382 104.516C115.153 104.516 115.811 104.458 116.358 104.344C116.905 104.229 117.322 104.057 117.608 103.828C117.895 103.599 118.038 103.328 118.038 103.016C118.038 102.713 117.892 102.453 117.601 102.234C117.309 102.016 116.89 101.846 116.343 101.726C115.796 101.607 115.142 101.547 114.382 101.547ZM120.71 107.391H108.054V106.391H120.71V107.391ZM119.085 111.703H110.835V113.391H109.616V110.797H117.882V109.531H109.585V108.594H119.085V111.703ZM119.507 114.109H109.616V113.141H119.507V114.109ZM132.003 114.297H130.8V109.187H132.003V114.297ZM137.738 109.812H125.081V108.781H137.738V109.812ZM131.878 103.125C131.878 103.896 131.62 104.601 131.105 105.242C130.589 105.883 129.91 106.414 129.066 106.836C128.222 107.258 127.311 107.547 126.331 107.703L125.878 106.719C126.712 106.604 127.506 106.37 128.261 106.016C129.016 105.661 129.628 105.232 130.097 104.726C130.566 104.221 130.8 103.687 130.8 103.125V102.75H131.878V103.125ZM132.019 103.125C132.019 103.677 132.251 104.208 132.714 104.719C133.178 105.229 133.787 105.661 134.542 106.016C135.298 106.37 136.092 106.604 136.925 106.719L136.472 107.703C135.503 107.557 134.597 107.268 133.753 106.836C132.91 106.404 132.232 105.867 131.722 105.226C131.212 104.586 130.956 103.885 130.956 103.125V102.75H132.019V103.125ZM136.519 103.109H126.316V102.109H136.519V103.109ZM132.003 102.453H130.8V100.375H132.003V102.453ZM149.252 114.266H148.033V100.375H149.252V114.266ZM151.502 107.062H148.939V106.031H151.502V107.062ZM145.658 101.875C145.658 103.229 145.436 104.505 144.994 105.703C144.551 106.901 143.856 108.005 142.908 109.016C141.96 110.026 140.752 110.896 139.283 111.625L138.595 110.656C139.887 110.01 140.968 109.255 141.837 108.391C142.707 107.526 143.361 106.565 143.798 105.508C144.236 104.45 144.455 103.307 144.455 102.078V101.875H145.658ZM145.08 102.906H139.236V101.875H145.08V102.906ZM162.672 114.266H161.453V100.375H162.672V114.266ZM165 107.125H162.39V106.109H165V107.125ZM160.109 103.625H151.844V102.609H160.109V103.625ZM156.047 104.781C156.703 104.781 157.289 104.917 157.804 105.187C158.32 105.458 158.724 105.836 159.015 106.32C159.307 106.805 159.453 107.354 159.453 107.969C159.453 108.583 159.307 109.133 159.015 109.617C158.724 110.101 158.32 110.479 157.804 110.75C157.289 111.021 156.703 111.156 156.047 111.156C155.39 111.156 154.804 111.021 154.289 110.75C153.773 110.479 153.37 110.101 153.078 109.617C152.786 109.133 152.64 108.583 152.64 107.969C152.64 107.354 152.786 106.805 153.078 106.32C153.37 105.836 153.773 105.458 154.289 105.187C154.804 104.917 155.39 104.781 156.047 104.781ZM156.047 105.812C155.62 105.812 155.237 105.904 154.898 106.086C154.56 106.268 154.294 106.523 154.101 106.851C153.909 107.18 153.812 107.552 153.812 107.969C153.812 108.385 153.909 108.755 154.101 109.078C154.294 109.401 154.56 109.654 154.898 109.836C155.237 110.018 155.62 110.109 156.047 110.109C156.474 110.109 156.857 110.018 157.195 109.836C157.534 109.654 157.799 109.401 157.992 109.078C158.185 108.755 158.281 108.385 158.281 107.969C158.281 107.552 158.185 107.18 157.992 106.851C157.799 106.523 157.534 106.268 157.195 106.086C156.857 105.904 156.474 105.812 156.047 105.812ZM156.64 103.078H155.422V100.547H156.64V103.078ZM173.592 106.406H170.857V105.359H173.592V106.406ZM169.248 104.375C169.248 105.323 169.115 106.25 168.85 107.156C168.584 108.062 168.204 108.872 167.709 109.586C167.214 110.299 166.633 110.859 165.967 111.266L165.186 110.344C165.811 109.979 166.357 109.479 166.826 108.844C167.295 108.208 167.654 107.502 167.904 106.726C168.154 105.95 168.279 105.167 168.279 104.375V101.687H169.248V104.375ZM169.467 104.328C169.467 105.068 169.584 105.807 169.818 106.547C170.053 107.286 170.391 107.961 170.834 108.57C171.277 109.18 171.795 109.661 172.389 110.016L171.686 110.969C171.029 110.573 170.464 110.023 169.99 109.32C169.516 108.617 169.154 107.833 168.904 106.969C168.654 106.104 168.529 105.224 168.529 104.328V101.687H169.467V104.328ZM177.248 114.266H176.061V100.375H177.248V114.266ZM174.373 113.562H173.217V100.672H174.373V113.562ZM183.121 111.703H181.918V107.547H183.121V111.703ZM188.324 111.703H187.09V107.547H188.324V111.703ZM191.481 112.484H178.762V111.453H191.481V112.484ZM185.09 101.25C186.08 101.25 186.957 101.398 187.723 101.695C188.488 101.992 189.087 102.411 189.52 102.953C189.952 103.495 190.168 104.12 190.168 104.828C190.168 105.536 189.952 106.159 189.52 106.695C189.087 107.232 188.488 107.648 187.723 107.945C186.957 108.242 186.08 108.391 185.09 108.391C184.111 108.391 183.236 108.242 182.465 107.945C181.694 107.648 181.093 107.232 180.66 106.695C180.228 106.159 180.012 105.536 180.012 104.828C180.012 104.12 180.228 103.495 180.66 102.953C181.093 102.411 181.694 101.992 182.465 101.695C183.236 101.398 184.111 101.25 185.09 101.25ZM185.09 102.266C184.34 102.255 183.671 102.357 183.082 102.57C182.494 102.784 182.033 103.086 181.699 103.476C181.366 103.867 181.199 104.318 181.199 104.828C181.199 105.338 181.366 105.789 181.699 106.18C182.033 106.57 182.494 106.875 183.082 107.094C183.671 107.312 184.34 107.422 185.09 107.422C185.84 107.422 186.509 107.312 187.098 107.094C187.686 106.875 188.147 106.57 188.481 106.18C188.814 105.789 188.981 105.338 188.981 104.828C188.981 104.318 188.814 103.867 188.481 103.476C188.147 103.086 187.686 102.784 187.098 102.57C186.509 102.357 185.84 102.255 185.09 102.266Z" fill="black"/>
<defs>
<clipPath id="clip0_136_8232">
<rect width="23" height="23" fill="white" transform="translate(52.6509 95.9999)"/>
</clipPath>
</defs>
</svg>
