<svg width="30" height="30" viewBox="0 0 30 30" fill="none" xmlns="http://www.w3.org/2000/svg">
<circle cx="15" cy="15" r="15" fill="#12A763"/>
<path d="M22.2313 18.0514C21.1208 18.0514 20.0465 17.8708 19.0444 17.5458C18.7285 17.4375 18.3764 17.5188 18.1326 17.7625L16.7153 19.541C14.1604 18.3222 11.7681 16.0201 10.4951 13.375L12.2556 11.8764C12.4993 11.6236 12.5715 11.2715 12.4722 10.9556C12.1382 9.95347 11.9667 8.87917 11.9667 7.76875C11.9667 7.28125 11.5604 6.875 11.0729 6.875H7.94931C7.46181 6.875 6.875 7.09167 6.875 7.76875C6.875 16.1556 13.8535 23.125 22.2313 23.125C22.8722 23.125 23.125 22.5562 23.125 22.0597V18.9451C23.125 18.4576 22.7188 18.0514 22.2313 18.0514Z" fill="white"/>
</svg>
