<svg width="35" height="35" viewBox="0 0 35 35" fill="none" xmlns="http://www.w3.org/2000/svg">
<circle cx="17.5" cy="17.5" r="17.5" fill="#48C927"/>
<path d="M25.9366 21.0599C24.6411 21.0599 23.3878 20.8493 22.2187 20.4701C21.85 20.3437 21.4393 20.4385 21.1549 20.7229L19.5013 22.7978C16.5206 21.3759 13.7296 18.6901 12.2445 15.6041L14.2983 13.8558C14.5827 13.5609 14.6669 13.1501 14.5511 12.7815C14.1614 11.6124 13.9613 10.359 13.9613 9.06352C13.9613 8.49477 13.4873 8.02081 12.9186 8.02081H9.27435C8.7056 8.02081 8.021 8.27359 8.021 9.06352C8.021 18.8481 16.1625 26.9791 25.9366 26.9791C26.6844 26.9791 26.9793 26.3156 26.9793 25.7363V22.1026C26.9793 21.5339 26.5054 21.0599 25.9366 21.0599Z" fill="white"/>
</svg>
