<svg width="51" height="51" viewBox="0 0 51 51" fill="none" xmlns="http://www.w3.org/2000/svg">
<rect width="51" height="51" fill="#1E1E1E"/>
<g id="tab3">
<path d="M-177 -725C-177 -726.105 -176.105 -727 -175 -727H1559C1560.1 -727 1561 -726.105 1561 -725V287C1561 288.105 1560.1 289 1559 289H-175C-176.105 289 -177 288.105 -177 287V-725Z" fill="#404040"/>
<path d="M-175 -726H1559V-728H-175V-726ZM1560 -725V287H1562V-725H1560ZM1559 288H-175V290H1559V288ZM-176 287V-725H-178V287H-176ZM-175 288C-175.552 288 -176 287.552 -176 287H-178C-178 288.657 -176.657 290 -175 290V288ZM1560 287C1560 287.552 1559.55 288 1559 288V290C1560.66 290 1562 288.657 1562 287H1560ZM1559 -726C1559.55 -726 1560 -725.552 1560 -725H1562C1562 -726.657 1560.66 -728 1559 -728V-726ZM-175 -728C-176.657 -728 -178 -726.657 -178 -725H-176C-176 -725.552 -175.552 -726 -175 -726V-728Z" fill="white" fill-opacity="0.1"/>
<g id="tab3_2" clip-path="url(#clip0_0_1)">
<rect width="360" height="800" transform="translate(-90 -644)" fill="#ECECEC"/>
<g id="Frame 35">
<g id="editinfo">
<g id="Rectangle 35" filter="url(#filter0_ii_0_1)">
<rect width="51" height="51" rx="10" fill="url(#paint0_linear_0_1)"/>
</g>
<g id="Frame 52">
<path id="Vector" d="M15.5 24.0422V28H19.4578L31.1306 16.3272L27.1728 12.3694L15.5 24.0422ZM34.1913 13.2665C34.6029 12.8549 34.6029 12.19 34.1913 11.7784L31.7216 9.30871C31.31 8.8971 30.6451 8.8971 30.2335 9.30871L28.3021 11.2401L32.2599 15.1979L34.1913 13.2665Z" fill="white"/>
<path id="&#236;&#136;&#152;&#236;&#160;&#149;&#237;&#149;&#152;&#234;&#184;&#176;" d="M12.6484 33.8467C12.6484 34.387 12.4889 34.8851 12.1699 35.3408C11.8509 35.7965 11.418 36.1758 10.8711 36.4785C10.3275 36.778 9.72852 36.9798 9.07422 37.084L8.70312 36.3369C9.26953 36.262 9.79199 36.1009 10.2705 35.8535C10.749 35.6061 11.1283 35.3066 11.4082 34.9551C11.6914 34.6035 11.833 34.234 11.833 33.8467V33.373H12.6484V33.8467ZM12.7949 33.8467C12.7949 34.2308 12.9365 34.6003 13.2197 34.9551C13.5062 35.3066 13.8903 35.6061 14.3721 35.8535C14.8571 36.1009 15.3796 36.262 15.9395 36.3369L15.5732 37.084C14.9157 36.9798 14.3151 36.7764 13.7715 36.4736C13.2279 36.1709 12.7949 35.7917 12.4727 35.3359C12.1504 34.8802 11.9893 34.3838 11.9893 33.8467V33.373H12.7949V33.8467ZM12.751 41.8252H11.8379V38.5293H12.751V41.8252ZM16.3008 38.7197H8.32227V37.9482H16.3008V38.7197ZM23.1877 36.0684H21.2981V35.3066H23.1877V36.0684ZM23.8518 38.2852H22.924V33.0752H23.8518V38.2852ZM20.9172 38.5342C21.5324 38.5342 22.0614 38.5993 22.5041 38.7295C22.9501 38.8597 23.2902 39.0485 23.5246 39.2959C23.7622 39.54 23.8811 39.8346 23.8811 40.1797C23.8811 40.5247 23.7622 40.8193 23.5246 41.0635C23.2902 41.3109 22.9501 41.4997 22.5041 41.6299C22.0614 41.7601 21.5324 41.8268 20.9172 41.8301C20.3085 41.8268 19.7828 41.7601 19.34 41.6299C18.8973 41.4997 18.5572 41.3109 18.3195 41.0635C18.0819 40.8193 17.9631 40.5247 17.9631 40.1797C17.9631 39.8346 18.0819 39.54 18.3195 39.2959C18.5572 39.0485 18.8973 38.8597 19.34 38.7295C19.7828 38.5993 20.3085 38.5342 20.9172 38.5342ZM20.9172 39.2471C20.4973 39.2471 20.1327 39.2845 19.8234 39.3594C19.5175 39.431 19.2831 39.5368 19.1203 39.6768C18.9608 39.8167 18.8811 39.9844 18.8811 40.1797C18.8811 40.3685 18.9608 40.5329 19.1203 40.6729C19.2831 40.8128 19.5175 40.9202 19.8234 40.9951C20.1327 41.0667 20.4973 41.1025 20.9172 41.1025C21.3469 41.1025 21.7131 41.0667 22.0158 40.9951C22.3218 40.9202 22.5546 40.8128 22.7141 40.6729C22.8768 40.5329 22.9582 40.3685 22.9582 40.1797C22.9582 39.9844 22.8768 39.8167 22.7141 39.6768C22.5546 39.5368 22.3218 39.431 22.0158 39.3594C21.7131 39.2845 21.3469 39.2471 20.9172 39.2471ZM19.5109 34.6377C19.5109 35.1748 19.41 35.6826 19.2082 36.1611C19.0096 36.6396 18.7248 37.0596 18.3537 37.4209C17.9826 37.779 17.5481 38.0508 17.05 38.2363L16.5666 37.4941C17.0093 37.3379 17.3951 37.1117 17.7238 36.8154C18.0559 36.5192 18.3098 36.1823 18.4856 35.8047C18.6613 35.4238 18.7492 35.0348 18.7492 34.6377V33.959H19.5109V34.6377ZM19.6867 34.6279C19.6867 34.9958 19.7714 35.3538 19.9406 35.7021C20.1099 36.0472 20.354 36.3564 20.6731 36.6299C20.9921 36.9001 21.3664 37.11 21.7961 37.2598L21.3225 37.9971C20.8309 37.8245 20.4061 37.569 20.0481 37.2305C19.69 36.8919 19.4149 36.498 19.2229 36.0488C19.0308 35.5964 18.9348 35.1227 18.9348 34.6279V33.959H19.6867V34.6279ZM21.5715 34.4424H16.8449V33.6758H21.5715V34.4424ZM31.6078 41.8252H30.6899V33.0752H31.6078V41.8252ZM33.019 37.3916H31.3979V36.625H33.019V37.3916ZM29.9281 35.2041H24.7426V34.4473H29.9281V35.2041ZM27.3744 35.8535C27.7911 35.8535 28.1638 35.9398 28.4926 36.1123C28.8246 36.2848 29.0834 36.5257 29.269 36.835C29.4578 37.1442 29.5522 37.4941 29.5522 37.8848C29.5522 38.2786 29.4578 38.6302 29.269 38.9395C29.0834 39.2487 28.8246 39.4896 28.4926 39.6621C28.1638 39.8346 27.7911 39.9209 27.3744 39.9209C26.9545 39.9209 26.5802 39.8346 26.2514 39.6621C25.9226 39.4896 25.6638 39.2487 25.475 38.9395C25.2895 38.6302 25.1967 38.2786 25.1967 37.8848C25.1967 37.4941 25.2895 37.1442 25.475 36.835C25.6638 36.5257 25.9226 36.2848 26.2514 36.1123C26.5802 35.9398 26.9545 35.8535 27.3744 35.8535ZM27.3744 36.6201C27.127 36.6201 26.9057 36.6738 26.7104 36.7812C26.5151 36.8854 26.3604 37.0335 26.2465 37.2256C26.1358 37.4176 26.0805 37.6374 26.0805 37.8848C26.0805 38.1354 26.1358 38.3551 26.2465 38.5439C26.3604 38.7327 26.5151 38.8809 26.7104 38.9883C26.9057 39.0924 27.127 39.1445 27.3744 39.1445C27.6218 39.1445 27.8432 39.0924 28.0385 38.9883C28.2338 38.8809 28.3868 38.7327 28.4975 38.5439C28.6082 38.3551 28.6635 38.1354 28.6635 37.8848C28.6635 37.6374 28.6082 37.4176 28.4975 37.2256C28.3868 37.0335 28.2338 36.8854 28.0385 36.7812C27.8432 36.6738 27.6218 36.6201 27.3744 36.6201ZM27.8285 34.7695H26.9057V33.1924H27.8285V34.7695ZM40.3014 41.8252H39.3639V33.0752H40.3014V41.8252ZM37.7037 34.0176C37.7037 34.9095 37.5654 35.7347 37.2887 36.4932C37.0153 37.2484 36.5758 37.945 35.9703 38.583C35.3649 39.2178 34.5771 39.7679 33.6071 40.2334L33.109 39.4814C33.9521 39.0843 34.6438 38.6221 35.1842 38.0947C35.7278 37.5674 36.1298 36.9782 36.3903 36.3271C36.6507 35.6761 36.7809 34.9567 36.7809 34.1689V34.0176H37.7037ZM37.1813 34.7598H33.5338V34.0176H37.1813V34.7598Z" fill="white"/>
</g>
</g>
</g>
</g>
</g>
<defs>
<filter id="filter0_ii_0_1" x="0" y="-3" width="54" height="55" filterUnits="userSpaceOnUse" color-interpolation-filters="sRGB">
<feFlood flood-opacity="0" result="BackgroundImageFix"/>
<feBlend mode="normal" in="SourceGraphic" in2="BackgroundImageFix" result="shape"/>
<feColorMatrix in="SourceAlpha" type="matrix" values="0 0 0 0 0 0 0 0 0 0 0 0 0 0 0 0 0 0 127 0" result="hardAlpha"/>
<feOffset dx="3" dy="1"/>
<feGaussianBlur stdDeviation="7.5"/>
<feComposite in2="hardAlpha" operator="arithmetic" k2="-1" k3="1"/>
<feColorMatrix type="matrix" values="0 0 0 0 1 0 0 0 0 1 0 0 0 0 1 0 0 0 0.5 0"/>
<feBlend mode="overlay" in2="shape" result="effect1_innerShadow_0_1"/>
<feColorMatrix in="SourceAlpha" type="matrix" values="0 0 0 0 0 0 0 0 0 0 0 0 0 0 0 0 0 0 127 0" result="hardAlpha"/>
<feOffset dy="-3"/>
<feGaussianBlur stdDeviation="5"/>
<feComposite in2="hardAlpha" operator="arithmetic" k2="-1" k3="1"/>
<feColorMatrix type="matrix" values="0 0 0 0 0 0 0 0 0 0 0 0 0 0 0 0 0 0 0.4 0"/>
<feBlend mode="overlay" in2="effect1_innerShadow_0_1" result="effect2_innerShadow_0_1"/>
</filter>
<linearGradient id="paint0_linear_0_1" x1="51" y1="51" x2="-1.51992e-06" y2="1.51992e-06" gradientUnits="userSpaceOnUse">
<stop stop-color="#2C5AFF"/>
<stop offset="1" stop-color="#6B7FC4"/>
</linearGradient>
<clipPath id="clip0_0_1">
<rect width="360" height="800" fill="white" transform="translate(-90 -644)"/>
</clipPath>
</defs>
</svg>
