<svg width="51" height="51" viewBox="0 0 51 51" fill="none" xmlns="http://www.w3.org/2000/svg">
<g id="photoadd">
<g id="Ellipse 8" filter="url(#filter0_ii_73_5839)">
<circle cx="25.5" cy="25.5" r="25.5" fill="url(#paint0_linear_73_5839)"/>
</g>
<path id="Vector" d="M35.2105 18.3158V22.0926C35.2105 22.0926 32.6968 22.1053 32.6842 22.0926V18.3158H28.8947C28.8947 18.3158 28.9074 15.8021 28.8947 15.7895H32.6842V12H35.2105V15.7895H39V18.3158H35.2105ZM31.4211 23.3684V19.5789H27.6316V15.7895H17.5263C16.1368 15.7895 15 16.9263 15 18.3158V33.4737C15 34.8632 16.1368 36 17.5263 36H32.6842C34.0737 36 35.2105 34.8632 35.2105 33.4737V23.3684H31.4211ZM17.5263 33.4737L21.3158 28.4211L23.8421 32.2105L27.6316 27.1579L32.6842 33.4737H17.5263Z" fill="white"/>
</g>
<defs>
<filter id="filter0_ii_73_5839" x="0" y="-3" width="54" height="55" filterUnits="userSpaceOnUse" color-interpolation-filters="sRGB">
<feFlood flood-opacity="0" result="BackgroundImageFix"/>
<feBlend mode="normal" in="SourceGraphic" in2="BackgroundImageFix" result="shape"/>
<feColorMatrix in="SourceAlpha" type="matrix" values="0 0 0 0 0 0 0 0 0 0 0 0 0 0 0 0 0 0 127 0" result="hardAlpha"/>
<feOffset dx="3" dy="1"/>
<feGaussianBlur stdDeviation="7.5"/>
<feComposite in2="hardAlpha" operator="arithmetic" k2="-1" k3="1"/>
<feColorMatrix type="matrix" values="0 0 0 0 1 0 0 0 0 1 0 0 0 0 1 0 0 0 0.5 0"/>
<feBlend mode="overlay" in2="shape" result="effect1_innerShadow_73_5839"/>
<feColorMatrix in="SourceAlpha" type="matrix" values="0 0 0 0 0 0 0 0 0 0 0 0 0 0 0 0 0 0 127 0" result="hardAlpha"/>
<feOffset dy="-3"/>
<feGaussianBlur stdDeviation="5"/>
<feComposite in2="hardAlpha" operator="arithmetic" k2="-1" k3="1"/>
<feColorMatrix type="matrix" values="0 0 0 0 0 0 0 0 0 0 0 0 0 0 0 0 0 0 0.4 0"/>
<feBlend mode="overlay" in2="effect1_innerShadow_73_5839" result="effect2_innerShadow_73_5839"/>
</filter>
<linearGradient id="paint0_linear_73_5839" x1="51" y1="51" x2="-1.51992e-06" y2="1.51992e-06" gradientUnits="userSpaceOnUse">
<stop stop-color="#2C5AFF"/>
<stop offset="1" stop-color="#6B7FC4"/>
</linearGradient>
</defs>
</svg>
