<svg width="71" height="71" viewBox="0 0 71 71" fill="none" xmlns="http://www.w3.org/2000/svg">
<g filter="url(#filter0_dii_73_5839)">
<circle cx="31.5" cy="29.5" r="25.5" fill="url(#paint0_linear_73_5839)"/>
</g>
<path d="M42.8947 22.8421V26.9337C42.8947 26.9337 40.1716 26.9474 40.1579 26.9337V22.8421H36.0526C36.0526 22.8421 36.0663 20.1189 36.0526 20.1053H40.1579V16H42.8947V20.1053H47V22.8421H42.8947ZM38.7895 28.3158V24.2105H34.6842V20.1053H23.7368C22.2316 20.1053 21 21.3368 21 22.8421V39.2632C21 40.7684 22.2316 42 23.7368 42H40.1579C41.6632 42 42.8947 40.7684 42.8947 39.2632V28.3158H38.7895ZM23.7368 39.2632L27.8421 33.7895L30.5789 37.8947L34.6842 32.4211L40.1579 39.2632H23.7368Z" fill="white"/>
<defs>
<filter id="filter0_dii_73_5839" x="0" y="0" width="71" height="71" filterUnits="userSpaceOnUse" color-interpolation-filters="sRGB">
<feFlood flood-opacity="0" result="BackgroundImageFix"/>
<feColorMatrix in="SourceAlpha" type="matrix" values="0 0 0 0 0 0 0 0 0 0 0 0 0 0 0 0 0 0 127 0" result="hardAlpha"/>
<feOffset dx="4" dy="6"/>
<feGaussianBlur stdDeviation="5"/>
<feComposite in2="hardAlpha" operator="out"/>
<feColorMatrix type="matrix" values="0 0 0 0 0.262905 0 0 0 0 0.330339 0 0 0 0 0.575553 0 0 0 0.37 0"/>
<feBlend mode="normal" in2="BackgroundImageFix" result="effect1_dropShadow_73_5839"/>
<feBlend mode="normal" in="SourceGraphic" in2="effect1_dropShadow_73_5839" result="shape"/>
<feColorMatrix in="SourceAlpha" type="matrix" values="0 0 0 0 0 0 0 0 0 0 0 0 0 0 0 0 0 0 127 0" result="hardAlpha"/>
<feOffset dx="3" dy="1"/>
<feGaussianBlur stdDeviation="7.5"/>
<feComposite in2="hardAlpha" operator="arithmetic" k2="-1" k3="1"/>
<feColorMatrix type="matrix" values="0 0 0 0 1 0 0 0 0 1 0 0 0 0 1 0 0 0 0.5 0"/>
<feBlend mode="overlay" in2="shape" result="effect2_innerShadow_73_5839"/>
<feColorMatrix in="SourceAlpha" type="matrix" values="0 0 0 0 0 0 0 0 0 0 0 0 0 0 0 0 0 0 127 0" result="hardAlpha"/>
<feOffset dy="-3"/>
<feGaussianBlur stdDeviation="5"/>
<feComposite in2="hardAlpha" operator="arithmetic" k2="-1" k3="1"/>
<feColorMatrix type="matrix" values="0 0 0 0 0 0 0 0 0 0 0 0 0 0 0 0 0 0 0.37 0"/>
<feBlend mode="overlay" in2="effect2_innerShadow_73_5839" result="effect3_innerShadow_73_5839"/>
</filter>
<linearGradient id="paint0_linear_73_5839" x1="57" y1="55" x2="6" y2="4" gradientUnits="userSpaceOnUse">
<stop stop-color="#2C5AFF"/>
<stop offset="1" stop-color="#6B7FC4"/>
</linearGradient>
</defs>
</svg>
