<svg width="51" height="51" viewBox="0 0 51 51" fill="none" xmlns="http://www.w3.org/2000/svg">
<g id="scanQR">
<g id="Ellipse 8" filter="url(#filter0_ii_133_8171)">
<circle cx="25.5" cy="25.5" r="25.5" fill="url(#paint0_linear_133_8171)"/>
</g>
<path id="Vector" d="M21.5 18.3V22.5H17.3V18.3H21.5ZM23.6 16.2H15.2V24.6H23.6V16.2ZM21.5 29.5V33.7H17.3V29.5H21.5ZM23.6 27.4H15.2V35.8H23.6V27.4ZM32.7 18.3V22.5H28.5V18.3H32.7ZM34.8 16.2H26.4V24.6H34.8V16.2ZM26.4 27.4H28.5V29.5H26.4V27.4ZM28.5 29.5H30.6V31.6H28.5V29.5ZM30.6 27.4H32.7V29.5H30.6V27.4ZM26.4 31.6H28.5V33.7H26.4V31.6ZM28.5 33.7H30.6V35.8H28.5V33.7ZM30.6 31.6H32.7V33.7H30.6V31.6ZM32.7 29.5H34.8V31.6H32.7V29.5ZM32.7 33.7H34.8V35.8H32.7V33.7ZM39 19H36.2V14.8H32V12H39V19ZM39 40V33H36.2V37.2H32V40H39ZM11 40H18V37.2H13.8V33H11V40ZM11 12V19H13.8V14.8H18V12H11Z" fill="white"/>
</g>
<defs>
<filter id="filter0_ii_133_8171" x="0" y="-3" width="54" height="55" filterUnits="userSpaceOnUse" color-interpolation-filters="sRGB">
<feFlood flood-opacity="0" result="BackgroundImageFix"/>
<feBlend mode="normal" in="SourceGraphic" in2="BackgroundImageFix" result="shape"/>
<feColorMatrix in="SourceAlpha" type="matrix" values="0 0 0 0 0 0 0 0 0 0 0 0 0 0 0 0 0 0 127 0" result="hardAlpha"/>
<feOffset dx="3" dy="1"/>
<feGaussianBlur stdDeviation="7.5"/>
<feComposite in2="hardAlpha" operator="arithmetic" k2="-1" k3="1"/>
<feColorMatrix type="matrix" values="0 0 0 0 1 0 0 0 0 1 0 0 0 0 1 0 0 0 0.5 0"/>
<feBlend mode="overlay" in2="shape" result="effect1_innerShadow_133_8171"/>
<feColorMatrix in="SourceAlpha" type="matrix" values="0 0 0 0 0 0 0 0 0 0 0 0 0 0 0 0 0 0 127 0" result="hardAlpha"/>
<feOffset dy="-3"/>
<feGaussianBlur stdDeviation="5"/>
<feComposite in2="hardAlpha" operator="arithmetic" k2="-1" k3="1"/>
<feColorMatrix type="matrix" values="0 0 0 0 0 0 0 0 0 0 0 0 0 0 0 0 0 0 0.4 0"/>
<feBlend mode="overlay" in2="effect1_innerShadow_133_8171" result="effect2_innerShadow_133_8171"/>
</filter>
<linearGradient id="paint0_linear_133_8171" x1="51" y1="51" x2="-1.51992e-06" y2="1.51992e-06" gradientUnits="userSpaceOnUse">
<stop stop-color="#2C5AFF"/>
<stop offset="1" stop-color="#6B7FC4"/>
</linearGradient>
</defs>
</svg>
