<svg width="51" height="51" viewBox="0 0 51 51" fill="none" xmlns="http://www.w3.org/2000/svg">
<g filter="url(#filter0_ii_133_8171)">
<rect width="51" height="51" rx="10" fill="url(#paint0_linear_133_8171)"/>
</g>
<path d="M22.625 14.275V17.125H19.775V14.275H22.625ZM24.05 12.85H18.35V18.55H24.05V12.85ZM22.625 21.875V24.725H19.775V21.875H22.625ZM24.05 20.45H18.35V26.15H24.05V20.45ZM30.225 14.275V17.125H27.375V14.275H30.225ZM31.65 12.85H25.95V18.55H31.65V12.85ZM25.95 20.45H27.375V21.875H25.95V20.45ZM27.375 21.875H28.8V23.3H27.375V21.875ZM28.8 20.45H30.225V21.875H28.8V20.45ZM25.95 23.3H27.375V24.725H25.95V23.3ZM27.375 24.725H28.8V26.15H27.375V24.725ZM28.8 23.3H30.225V24.725H28.8V23.3ZM30.225 21.875H31.65V23.3H30.225V21.875ZM30.225 24.725H31.65V26.15H30.225V24.725ZM34.5 14.75H32.6V11.9H29.75V10H34.5V14.75ZM34.5 29V24.25H32.6V27.1H29.75V29H34.5ZM15.5 29H20.25V27.1H17.4V24.25H15.5V29ZM15.5 10V14.75H17.4V11.9H20.25V10H15.5Z" fill="white"/>
<path d="M12.9313 35.3203C12.9313 35.9323 12.7669 36.5068 12.4382 37.0439C12.1127 37.5778 11.6781 38.0303 11.1345 38.4014C10.5908 38.7725 9.99677 39.0296 9.35223 39.1729L8.93719 38.3965C9.49384 38.2858 10.0163 38.0775 10.5046 37.7715C10.9929 37.4655 11.3835 37.096 11.6765 36.6631C11.9694 36.2301 12.1159 35.7826 12.1159 35.3203V34.666H12.9313V35.3203ZM13.0925 35.3203C13.0925 35.7793 13.2406 36.2269 13.5368 36.6631C13.833 37.0993 14.2269 37.472 14.7184 37.7812C15.21 38.0872 15.7324 38.2923 16.2858 38.3965L15.8708 39.1729C15.2328 39.0296 14.6419 38.7741 14.0983 38.4062C13.5547 38.0384 13.1185 37.5859 12.7897 37.0488C12.461 36.5117 12.2966 35.9355 12.2966 35.3203V34.666H13.0925V35.3203ZM16.6569 41.6777H8.64911V40.9111H16.6569V41.6777ZM24.3446 40.6621H23.4608V34.085H24.3446V40.6621ZM23.7489 37.5078H22.1425V36.7363H23.7489V37.5078ZM22.411 40.3887H21.5272V34.2461H22.411V40.3887ZM24.6083 42.6543H18.5145V41.8877H24.6083V42.6543ZM19.4374 42.3369H18.5145V39.8711H19.4374V42.3369ZM20.7753 34.8271C20.7753 35.5726 20.6614 36.2497 20.4335 36.8584C20.2056 37.4639 19.841 38.0075 19.3397 38.4893C18.8384 38.9678 18.1841 39.3763 17.3769 39.7148L16.9276 39.0508C17.6275 38.7611 18.1955 38.4209 18.6317 38.0303C19.0712 37.6396 19.3902 37.2018 19.5888 36.7168C19.7873 36.2285 19.8866 35.6898 19.8866 35.1006V34.8271H20.7753ZM20.1894 35.584H17.3476V34.8271H20.1894V35.584ZM17.079 37.4053L16.9423 36.6338L19.8427 36.4531V37.0977L17.079 37.4053ZM31.9347 42.8252H31.0167V34.0752H31.9347V42.8252ZM33.3458 38.3916H31.7247V37.625H33.3458V38.3916ZM30.255 36.2041H25.0694V35.4473H30.255V36.2041ZM27.7013 36.8535C28.1179 36.8535 28.4907 36.9398 28.8194 37.1123C29.1515 37.2848 29.4103 37.5257 29.5958 37.835C29.7846 38.1442 29.879 38.4941 29.879 38.8848C29.879 39.2786 29.7846 39.6302 29.5958 39.9395C29.4103 40.2487 29.1515 40.4896 28.8194 40.6621C28.4907 40.8346 28.1179 40.9209 27.7013 40.9209C27.2814 40.9209 26.907 40.8346 26.5782 40.6621C26.2495 40.4896 25.9907 40.2487 25.8019 39.9395C25.6163 39.6302 25.5235 39.2786 25.5235 38.8848C25.5235 38.4941 25.6163 38.1442 25.8019 37.835C25.9907 37.5257 26.2495 37.2848 26.5782 37.1123C26.907 36.9398 27.2814 36.8535 27.7013 36.8535ZM27.7013 37.6201C27.4539 37.6201 27.2325 37.6738 27.0372 37.7812C26.8419 37.8854 26.6873 38.0335 26.5733 38.2256C26.4627 38.4176 26.4073 38.6374 26.4073 38.8848C26.4073 39.1354 26.4627 39.3551 26.5733 39.5439C26.6873 39.7327 26.8419 39.8809 27.0372 39.9883C27.2325 40.0924 27.4539 40.1445 27.7013 40.1445C27.9487 40.1445 28.17 40.0924 28.3653 39.9883C28.5606 39.8809 28.7136 39.7327 28.8243 39.5439C28.935 39.3551 28.9903 39.1354 28.9903 38.8848C28.9903 38.6374 28.935 38.4176 28.8243 38.2256C28.7136 38.0335 28.5606 37.8854 28.3653 37.7812C28.17 37.6738 27.9487 37.6201 27.7013 37.6201ZM28.1554 35.7695H27.2325V34.1924H28.1554V35.7695ZM40.6282 42.8252H39.6907V34.0752H40.6282V42.8252ZM38.0306 35.0176C38.0306 35.9095 37.8922 36.7347 37.6155 37.4932C37.3421 38.2484 36.9026 38.945 36.2972 39.583C35.6917 40.2178 34.904 40.7679 33.9339 41.2334L33.4359 40.4814C34.279 40.0843 34.9707 39.6221 35.511 39.0947C36.0547 38.5674 36.4567 37.9782 36.7171 37.3271C36.9775 36.6761 37.1077 35.9567 37.1077 35.1689V35.0176H38.0306ZM37.5081 35.7598H33.8607V35.0176H37.5081V35.7598Z" fill="white"/>
<defs>
<filter id="filter0_ii_133_8171" x="0" y="-3" width="54" height="55" filterUnits="userSpaceOnUse" color-interpolation-filters="sRGB">
<feFlood flood-opacity="0" result="BackgroundImageFix"/>
<feBlend mode="normal" in="SourceGraphic" in2="BackgroundImageFix" result="shape"/>
<feColorMatrix in="SourceAlpha" type="matrix" values="0 0 0 0 0 0 0 0 0 0 0 0 0 0 0 0 0 0 127 0" result="hardAlpha"/>
<feOffset dx="3" dy="1"/>
<feGaussianBlur stdDeviation="7.5"/>
<feComposite in2="hardAlpha" operator="arithmetic" k2="-1" k3="1"/>
<feColorMatrix type="matrix" values="0 0 0 0 1 0 0 0 0 1 0 0 0 0 1 0 0 0 0.5 0"/>
<feBlend mode="overlay" in2="shape" result="effect1_innerShadow_133_8171"/>
<feColorMatrix in="SourceAlpha" type="matrix" values="0 0 0 0 0 0 0 0 0 0 0 0 0 0 0 0 0 0 127 0" result="hardAlpha"/>
<feOffset dy="-3"/>
<feGaussianBlur stdDeviation="5"/>
<feComposite in2="hardAlpha" operator="arithmetic" k2="-1" k3="1"/>
<feColorMatrix type="matrix" values="0 0 0 0 0 0 0 0 0 0 0 0 0 0 0 0 0 0 0.4 0"/>
<feBlend mode="overlay" in2="effect1_innerShadow_133_8171" result="effect2_innerShadow_133_8171"/>
</filter>
<linearGradient id="paint0_linear_133_8171" x1="51" y1="51" x2="-1.51992e-06" y2="1.51992e-06" gradientUnits="userSpaceOnUse">
<stop stop-color="#2C5AFF"/>
<stop offset="1" stop-color="#6B7FC4"/>
</linearGradient>
</defs>
</svg>
