<svg width="26" height="26" viewBox="0 0 26 26" fill="none" xmlns="http://www.w3.org/2000/svg">
<g id="Vector" filter="url(#filter0_ii_41_466)">
<path d="M18.6042 16.4167H17.4521L17.0438 16.0229C18.4729 14.3604 19.3333 12.2021 19.3333 9.85417C19.3333 4.61875 15.0896 0.375 9.85417 0.375C4.61875 0.375 0.375 4.61875 0.375 9.85417C0.375 15.0896 4.61875 19.3333 9.85417 19.3333C12.2021 19.3333 14.3604 18.4729 16.0229 17.0438L16.4167 17.4521V18.6042L23.7083 25.8813L25.8813 23.7083L18.6042 16.4167ZM9.85417 16.4167C6.22292 16.4167 3.29167 13.4854 3.29167 9.85417C3.29167 6.22292 6.22292 3.29167 9.85417 3.29167C13.4854 3.29167 16.4167 6.22292 16.4167 9.85417C16.4167 13.4854 13.4854 16.4167 9.85417 16.4167Z" fill="url(#paint0_linear_41_466)"/>
</g>
<defs>
<filter id="filter0_ii_41_466" x="0.375" y="-2.625" width="28.5063" height="29.5062" filterUnits="userSpaceOnUse" color-interpolation-filters="sRGB">
<feFlood flood-opacity="0" result="BackgroundImageFix"/>
<feBlend mode="normal" in="SourceGraphic" in2="BackgroundImageFix" result="shape"/>
<feColorMatrix in="SourceAlpha" type="matrix" values="0 0 0 0 0 0 0 0 0 0 0 0 0 0 0 0 0 0 127 0" result="hardAlpha"/>
<feOffset dx="3" dy="1"/>
<feGaussianBlur stdDeviation="7.5"/>
<feComposite in2="hardAlpha" operator="arithmetic" k2="-1" k3="1"/>
<feColorMatrix type="matrix" values="0 0 0 0 1 0 0 0 0 1 0 0 0 0 1 0 0 0 0.5 0"/>
<feBlend mode="overlay" in2="shape" result="effect1_innerShadow_41_466"/>
<feColorMatrix in="SourceAlpha" type="matrix" values="0 0 0 0 0 0 0 0 0 0 0 0 0 0 0 0 0 0 127 0" result="hardAlpha"/>
<feOffset dy="-3"/>
<feGaussianBlur stdDeviation="5"/>
<feComposite in2="hardAlpha" operator="arithmetic" k2="-1" k3="1"/>
<feColorMatrix type="matrix" values="0 0 0 0 0 0 0 0 0 0 0 0 0 0 0 0 0 0 0.4 0"/>
<feBlend mode="overlay" in2="effect1_innerShadow_41_466" result="effect2_innerShadow_41_466"/>
</filter>
<linearGradient id="paint0_linear_41_466" x1="25.8813" y1="25.8813" x2="0.374999" y2="0.375001" gradientUnits="userSpaceOnUse">
<stop stop-color="#2C5AFF"/>
<stop offset="1" stop-color="#6B7FC4"/>
</linearGradient>
</defs>
</svg>
