<svg width="51" height="51" viewBox="0 0 51 51" fill="none" xmlns="http://www.w3.org/2000/svg">
<g id="share">
<g id="Ellipse 8" filter="url(#filter0_ii_133_8177)">
<circle cx="25.5" cy="25.5" r="25.5" fill="url(#paint0_linear_133_8177)"/>
</g>
<path id="Vector" d="M33.6667 31.498C32.5689 31.498 31.5867 31.9347 30.8356 32.619L20.5367 26.5773C20.6089 26.2425 20.6667 25.9076 20.6667 25.5582C20.6667 25.2088 20.6089 24.874 20.5367 24.5392L30.72 18.5557C31.5 19.2836 32.5256 19.7349 33.6667 19.7349C36.0644 19.7349 38 17.7841 38 15.3675C38 12.9508 36.0644 11 33.6667 11C31.2689 11 29.3333 12.9508 29.3333 15.3675C29.3333 15.7169 29.3911 16.0517 29.4633 16.3865L19.28 22.37C18.5 21.6421 17.4744 21.1908 16.3333 21.1908C13.9356 21.1908 12 23.1416 12 25.5582C12 27.9749 13.9356 29.9257 16.3333 29.9257C17.4744 29.9257 18.5 29.4744 19.28 28.7465L29.5644 34.8027C29.4922 35.1084 29.4489 35.4287 29.4489 35.749C29.4489 38.0929 31.3411 40 33.6667 40C35.9922 40 37.8844 38.0929 37.8844 35.749C37.8844 33.4051 35.9922 31.498 33.6667 31.498Z" fill="white"/>
</g>
<defs>
<filter id="filter0_ii_133_8177" x="0" y="-3" width="54" height="55" filterUnits="userSpaceOnUse" color-interpolation-filters="sRGB">
<feFlood flood-opacity="0" result="BackgroundImageFix"/>
<feBlend mode="normal" in="SourceGraphic" in2="BackgroundImageFix" result="shape"/>
<feColorMatrix in="SourceAlpha" type="matrix" values="0 0 0 0 0 0 0 0 0 0 0 0 0 0 0 0 0 0 127 0" result="hardAlpha"/>
<feOffset dx="3" dy="1"/>
<feGaussianBlur stdDeviation="7.5"/>
<feComposite in2="hardAlpha" operator="arithmetic" k2="-1" k3="1"/>
<feColorMatrix type="matrix" values="0 0 0 0 1 0 0 0 0 1 0 0 0 0 1 0 0 0 0.5 0"/>
<feBlend mode="overlay" in2="shape" result="effect1_innerShadow_133_8177"/>
<feColorMatrix in="SourceAlpha" type="matrix" values="0 0 0 0 0 0 0 0 0 0 0 0 0 0 0 0 0 0 127 0" result="hardAlpha"/>
<feOffset dy="-3"/>
<feGaussianBlur stdDeviation="5"/>
<feComposite in2="hardAlpha" operator="arithmetic" k2="-1" k3="1"/>
<feColorMatrix type="matrix" values="0 0 0 0 0 0 0 0 0 0 0 0 0 0 0 0 0 0 0.4 0"/>
<feBlend mode="overlay" in2="effect1_innerShadow_133_8177" result="effect2_innerShadow_133_8177"/>
</filter>
<linearGradient id="paint0_linear_133_8177" x1="51" y1="51" x2="-1.51992e-06" y2="1.51992e-06" gradientUnits="userSpaceOnUse">
<stop stop-color="#2C5AFF"/>
<stop offset="1" stop-color="#6B7FC4"/>
</linearGradient>
</defs>
</svg>
