<svg width="51" height="51" viewBox="0 0 51 51" fill="none" xmlns="http://www.w3.org/2000/svg">
<rect width="51" height="51" fill="#1E1E1E"/>
<g id="tab3">
<path d="M-241 -725C-241 -726.105 -240.105 -727 -239 -727H1495C1496.1 -727 1497 -726.105 1497 -725V287C1497 288.105 1496.1 289 1495 289H-239C-240.105 289 -241 288.105 -241 287V-725Z" fill="#404040"/>
<path d="M-239 -726H1495V-728H-239V-726ZM1496 -725V287H1498V-725H1496ZM1495 288H-239V290H1495V288ZM-240 287V-725H-242V287H-240ZM-239 288C-239.552 288 -240 287.552 -240 287H-242C-242 288.657 -240.657 290 -239 290V288ZM1496 287C1496 287.552 1495.55 288 1495 288V290C1496.66 290 1498 288.657 1498 287H1496ZM1495 -726C1495.55 -726 1496 -725.552 1496 -725H1498C1498 -726.657 1496.66 -728 1495 -728V-726ZM-239 -728C-240.657 -728 -242 -726.657 -242 -725H-240C-240 -725.552 -239.552 -726 -239 -726V-728Z" fill="white" fill-opacity="0.1"/>
<g id="tab3_2" clip-path="url(#clip0_0_1)">
<rect width="360" height="800" transform="translate(-154 -644)" fill="#ECECEC"/>
<g id="Frame 35">
<g id="share">
<g id="Rectangle 35" filter="url(#filter0_ii_0_1)">
<rect width="51" height="51" rx="10" fill="url(#paint0_linear_0_1)"/>
</g>
<g id="Frame 51">
<path id="Vector" d="M31.3333 22.8434C30.5311 22.8434 29.8133 23.1596 29.2644 23.6551L21.7383 19.2801C21.7911 19.0377 21.8333 18.7952 21.8333 18.5422C21.8333 18.2892 21.7911 18.0467 21.7383 17.8042L29.18 13.4714C29.75 13.9985 30.4994 14.3253 31.3333 14.3253C33.0856 14.3253 34.5 12.9127 34.5 11.1627C34.5 9.41265 33.0856 8 31.3333 8C29.5811 8 28.1667 9.41265 28.1667 11.1627C28.1667 11.4157 28.2089 11.6581 28.2617 11.9006L20.82 16.2334C20.25 15.7063 19.5006 15.3795 18.6667 15.3795C16.9144 15.3795 15.5 16.7922 15.5 18.5422C15.5 20.2922 16.9144 21.7048 18.6667 21.7048C19.5006 21.7048 20.25 21.378 20.82 20.8509L28.3356 25.2364C28.2828 25.4578 28.2511 25.6898 28.2511 25.9217C28.2511 27.619 29.6339 29 31.3333 29C33.0328 29 34.4156 27.619 34.4156 25.9217C34.4156 24.2244 33.0328 22.8434 31.3333 22.8434Z" fill="white"/>
<path id="&#234;&#179;&#181;&#236;&#156;&#160;&#237;&#149;&#152;&#234;&#184;&#176;" d="M12.5993 39.583C13.2341 39.583 13.7826 39.6465 14.2448 39.7734C14.7071 39.8971 15.0635 40.0811 15.3141 40.3252C15.5648 40.5693 15.6901 40.8623 15.6901 41.2041C15.6901 41.5361 15.5648 41.8226 15.3141 42.0635C15.0635 42.3044 14.7054 42.4899 14.2399 42.6201C13.7744 42.7503 13.2276 42.8154 12.5993 42.8154C11.9743 42.8154 11.4307 42.7503 10.9684 42.6201C10.5062 42.4899 10.1498 42.3044 9.89911 42.0635C9.64846 41.8226 9.52313 41.5361 9.52313 41.2041C9.52313 40.8656 9.64846 40.5742 9.89911 40.3301C10.1498 40.0827 10.5062 39.8971 10.9684 39.7734C11.4307 39.6465 11.9743 39.583 12.5993 39.583ZM12.5993 40.2812C12.1599 40.2812 11.7774 40.3187 11.4518 40.3936C11.1263 40.4652 10.8757 40.571 10.6999 40.7109C10.5274 40.8477 10.4411 41.012 10.4411 41.2041C10.4411 41.3864 10.5274 41.5459 10.6999 41.6826C10.8757 41.8161 11.1263 41.9186 11.4518 41.9902C11.7774 42.0586 12.1599 42.0928 12.5993 42.0928C13.0453 42.0928 13.4294 42.0586 13.7516 41.9902C14.0772 41.9186 14.3278 41.8145 14.5036 41.6777C14.6794 41.541 14.7673 41.3831 14.7673 41.2041C14.7673 41.012 14.6794 40.8477 14.5036 40.7109C14.3278 40.571 14.0772 40.4652 13.7516 40.3936C13.4294 40.3187 13.0453 40.2812 12.5993 40.2812ZM15.236 35.252H9.59149V34.5098H15.236V35.252ZM16.6179 38.8555H8.66376V38.1035H16.6179V38.8555ZM12.7653 38.3232H11.8522V36.4629H12.7653V38.3232ZM15.6315 35.2373C15.6315 35.7126 15.6169 36.1195 15.5876 36.458C15.5615 36.7933 15.4932 37.1644 15.3825 37.5713L14.4743 37.4688C14.5785 37.0651 14.6419 36.7054 14.6647 36.3896C14.6908 36.0739 14.7054 35.6898 14.7087 35.2373V34.5098H15.6315V35.2373ZM19.8231 42.8252H18.8661V39.5195H19.8231V42.8252ZM22.8505 42.8252H21.913V39.5195H22.8505V42.8252ZM24.8817 39.7832H16.8739V39.0264H24.8817V39.7832ZM20.8583 34.4072C21.4735 34.4072 22.0172 34.487 22.4892 34.6465C22.9612 34.8027 23.3257 35.0273 23.5829 35.3203C23.8433 35.61 23.9735 35.9502 23.9735 36.3408C23.9735 36.7217 23.8433 37.057 23.5829 37.3467C23.3257 37.6331 22.9612 37.8545 22.4892 38.0107C22.0172 38.167 21.4735 38.2451 20.8583 38.2451C20.2431 38.2451 19.7011 38.167 19.2323 38.0107C18.7636 37.8545 18.3974 37.6331 18.1337 37.3467C17.8733 37.057 17.7431 36.7217 17.7431 36.3408C17.7431 35.9502 17.8733 35.61 18.1337 35.3203C18.3941 35.0273 18.7587 34.8027 19.2274 34.6465C19.6994 34.487 20.2431 34.4072 20.8583 34.4072ZM20.8583 35.1592C20.4254 35.1592 20.0461 35.2064 19.7206 35.3008C19.3951 35.3952 19.1428 35.5319 18.9638 35.7109C18.788 35.89 18.7001 36.0999 18.7001 36.3408C18.7001 36.5785 18.788 36.7852 18.9638 36.9609C19.1428 37.1335 19.3951 37.2686 19.7206 37.3662C20.0461 37.4606 20.4254 37.5078 20.8583 37.5078C21.2912 37.5078 21.6721 37.4606 22.0009 37.3662C22.3297 37.2686 22.5819 37.1335 22.7577 36.9609C22.9367 36.7852 23.0263 36.5785 23.0263 36.3408C23.0263 36.0999 22.9367 35.89 22.7577 35.7109C22.5819 35.5319 22.3297 35.3952 22.0009 35.3008C21.6721 35.2064 21.2912 35.1592 20.8583 35.1592ZM31.9347 42.8252H31.0167V34.0752H31.9347V42.8252ZM33.3458 38.3916H31.7247V37.625H33.3458V38.3916ZM30.255 36.2041H25.0694V35.4473H30.255V36.2041ZM27.7013 36.8535C28.1179 36.8535 28.4907 36.9398 28.8194 37.1123C29.1515 37.2848 29.4103 37.5257 29.5958 37.835C29.7846 38.1442 29.879 38.4941 29.879 38.8848C29.879 39.2786 29.7846 39.6302 29.5958 39.9395C29.4103 40.2487 29.1515 40.4896 28.8194 40.6621C28.4907 40.8346 28.1179 40.9209 27.7013 40.9209C27.2814 40.9209 26.907 40.8346 26.5782 40.6621C26.2495 40.4896 25.9907 40.2487 25.8019 39.9395C25.6163 39.6302 25.5235 39.2786 25.5235 38.8848C25.5235 38.4941 25.6163 38.1442 25.8019 37.835C25.9907 37.5257 26.2495 37.2848 26.5782 37.1123C26.907 36.9398 27.2814 36.8535 27.7013 36.8535ZM27.7013 37.6201C27.4539 37.6201 27.2325 37.6738 27.0372 37.7812C26.8419 37.8854 26.6873 38.0335 26.5733 38.2256C26.4627 38.4176 26.4073 38.6374 26.4073 38.8848C26.4073 39.1354 26.4627 39.3551 26.5733 39.5439C26.6873 39.7327 26.8419 39.8809 27.0372 39.9883C27.2325 40.0924 27.4539 40.1445 27.7013 40.1445C27.9487 40.1445 28.17 40.0924 28.3653 39.9883C28.5606 39.8809 28.7136 39.7327 28.8243 39.5439C28.935 39.3551 28.9903 39.1354 28.9903 38.8848C28.9903 38.6374 28.935 38.4176 28.8243 38.2256C28.7136 38.0335 28.5606 37.8854 28.3653 37.7812C28.17 37.6738 27.9487 37.6201 27.7013 37.6201ZM28.1554 35.7695H27.2325V34.1924H28.1554V35.7695ZM40.6282 42.8252H39.6907V34.0752H40.6282V42.8252ZM38.0306 35.0176C38.0306 35.9095 37.8922 36.7347 37.6155 37.4932C37.3421 38.2484 36.9026 38.945 36.2972 39.583C35.6917 40.2178 34.904 40.7679 33.9339 41.2334L33.4359 40.4814C34.279 40.0843 34.9707 39.6221 35.511 39.0947C36.0547 38.5674 36.4567 37.9782 36.7171 37.3271C36.9775 36.6761 37.1077 35.9567 37.1077 35.1689V35.0176H38.0306ZM37.5081 35.7598H33.8607V35.0176H37.5081V35.7598Z" fill="white"/>
</g>
</g>
</g>
</g>
</g>
<defs>
<filter id="filter0_ii_0_1" x="0" y="-3" width="54" height="55" filterUnits="userSpaceOnUse" color-interpolation-filters="sRGB">
<feFlood flood-opacity="0" result="BackgroundImageFix"/>
<feBlend mode="normal" in="SourceGraphic" in2="BackgroundImageFix" result="shape"/>
<feColorMatrix in="SourceAlpha" type="matrix" values="0 0 0 0 0 0 0 0 0 0 0 0 0 0 0 0 0 0 127 0" result="hardAlpha"/>
<feOffset dx="3" dy="1"/>
<feGaussianBlur stdDeviation="7.5"/>
<feComposite in2="hardAlpha" operator="arithmetic" k2="-1" k3="1"/>
<feColorMatrix type="matrix" values="0 0 0 0 1 0 0 0 0 1 0 0 0 0 1 0 0 0 0.5 0"/>
<feBlend mode="overlay" in2="shape" result="effect1_innerShadow_0_1"/>
<feColorMatrix in="SourceAlpha" type="matrix" values="0 0 0 0 0 0 0 0 0 0 0 0 0 0 0 0 0 0 127 0" result="hardAlpha"/>
<feOffset dy="-3"/>
<feGaussianBlur stdDeviation="5"/>
<feComposite in2="hardAlpha" operator="arithmetic" k2="-1" k3="1"/>
<feColorMatrix type="matrix" values="0 0 0 0 0 0 0 0 0 0 0 0 0 0 0 0 0 0 0.4 0"/>
<feBlend mode="overlay" in2="effect1_innerShadow_0_1" result="effect2_innerShadow_0_1"/>
</filter>
<linearGradient id="paint0_linear_0_1" x1="51" y1="51" x2="-1.51992e-06" y2="1.51992e-06" gradientUnits="userSpaceOnUse">
<stop stop-color="#2C5AFF"/>
<stop offset="1" stop-color="#6B7FC4"/>
</linearGradient>
<clipPath id="clip0_0_1">
<rect width="360" height="800" fill="white" transform="translate(-154 -644)"/>
</clipPath>
</defs>
</svg>
