<svg width="23" height="23" viewBox="0 0 23 23" fill="none" xmlns="http://www.w3.org/2000/svg">
<g filter="url(#filter0_ii_43_556)">
<path d="M23 16.1V2.3C23 1.035 21.965 0 20.7 0H6.9C5.635 0 4.6 1.035 4.6 2.3V16.1C4.6 17.365 5.635 18.4 6.9 18.4H20.7C21.965 18.4 23 17.365 23 16.1ZM10.35 11.5L12.6845 14.6165L16.1 10.35L20.7 16.1H6.9L10.35 11.5ZM0 4.6V20.7C0 21.965 1.035 23 2.3 23H18.4V20.7H2.3V4.6H0Z" fill="url(#paint0_linear_43_556)"/>
</g>
<defs>
<filter id="filter0_ii_43_556" x="0" y="-3" width="26" height="27" filterUnits="userSpaceOnUse" color-interpolation-filters="sRGB">
<feFlood flood-opacity="0" result="BackgroundImageFix"/>
<feBlend mode="normal" in="SourceGraphic" in2="BackgroundImageFix" result="shape"/>
<feColorMatrix in="SourceAlpha" type="matrix" values="0 0 0 0 0 0 0 0 0 0 0 0 0 0 0 0 0 0 127 0" result="hardAlpha"/>
<feOffset dx="3" dy="1"/>
<feGaussianBlur stdDeviation="7.5"/>
<feComposite in2="hardAlpha" operator="arithmetic" k2="-1" k3="1"/>
<feColorMatrix type="matrix" values="0 0 0 0 1 0 0 0 0 1 0 0 0 0 1 0 0 0 0.5 0"/>
<feBlend mode="overlay" in2="shape" result="effect1_innerShadow_43_556"/>
<feColorMatrix in="SourceAlpha" type="matrix" values="0 0 0 0 0 0 0 0 0 0 0 0 0 0 0 0 0 0 127 0" result="hardAlpha"/>
<feOffset dy="-3"/>
<feGaussianBlur stdDeviation="5"/>
<feComposite in2="hardAlpha" operator="arithmetic" k2="-1" k3="1"/>
<feColorMatrix type="matrix" values="0 0 0 0 0 0 0 0 0 0 0 0 0 0 0 0 0 0 0.4 0"/>
<feBlend mode="overlay" in2="effect1_innerShadow_43_556" result="effect2_innerShadow_43_556"/>
</filter>
<linearGradient id="paint0_linear_43_556" x1="23" y1="23" x2="-6.85453e-07" y2="6.85453e-07" gradientUnits="userSpaceOnUse">
<stop stop-color="#2C5AFF"/>
<stop offset="1" stop-color="#6B7FC4"/>
</linearGradient>
</defs>
</svg>
