<svg width="30" height="24" viewBox="0 0 30 24" fill="none" xmlns="http://www.w3.org/2000/svg">
<g id="Vector" filter="url(#filter0_ii_43_586)">
<path d="M27 3H15L12 0H3C1.35 0 0.015 1.35 0.015 3L0 21C0 22.65 1.35 24 3 24H27C28.65 24 30 22.65 30 21V6C30 4.35 28.65 3 27 3ZM19.5 7.5C21.15 7.5 22.5 8.85 22.5 10.5C22.5 12.15 21.15 13.5 19.5 13.5C17.85 13.5 16.5 12.15 16.5 10.5C16.5 8.85 17.85 7.5 19.5 7.5ZM25.5 19.5H13.5V18C13.5 16.005 17.505 15 19.5 15C21.495 15 25.5 16.005 25.5 18V19.5Z" fill="url(#paint0_linear_43_586)"/>
</g>
<defs>
<filter id="filter0_ii_43_586" x="0" y="-3" width="33" height="28" filterUnits="userSpaceOnUse" color-interpolation-filters="sRGB">
<feFlood flood-opacity="0" result="BackgroundImageFix"/>
<feBlend mode="normal" in="SourceGraphic" in2="BackgroundImageFix" result="shape"/>
<feColorMatrix in="SourceAlpha" type="matrix" values="0 0 0 0 0 0 0 0 0 0 0 0 0 0 0 0 0 0 127 0" result="hardAlpha"/>
<feOffset dx="3" dy="1"/>
<feGaussianBlur stdDeviation="7.5"/>
<feComposite in2="hardAlpha" operator="arithmetic" k2="-1" k3="1"/>
<feColorMatrix type="matrix" values="0 0 0 0 1 0 0 0 0 1 0 0 0 0 1 0 0 0 0.5 0"/>
<feBlend mode="overlay" in2="shape" result="effect1_innerShadow_43_586"/>
<feColorMatrix in="SourceAlpha" type="matrix" values="0 0 0 0 0 0 0 0 0 0 0 0 0 0 0 0 0 0 127 0" result="hardAlpha"/>
<feOffset dy="-3"/>
<feGaussianBlur stdDeviation="5"/>
<feComposite in2="hardAlpha" operator="arithmetic" k2="-1" k3="1"/>
<feColorMatrix type="matrix" values="0 0 0 0 0 0 0 0 0 0 0 0 0 0 0 0 0 0 0.4 0"/>
<feBlend mode="overlay" in2="effect1_innerShadow_43_586" result="effect2_innerShadow_43_586"/>
</filter>
<linearGradient id="paint0_linear_43_586" x1="30" y1="24" x2="6.58537" y2="-5.26829" gradientUnits="userSpaceOnUse">
<stop stop-color="#2C5AFF"/>
<stop offset="1" stop-color="#6B7FC4"/>
</linearGradient>
</defs>
</svg>
