<svg width="71" height="71" viewBox="0 0 71 71" fill="none" xmlns="http://www.w3.org/2000/svg">
<g filter="url(#filter0_dii_73_5857)">
<circle cx="31.5" cy="29.5" r="25.5" fill="url(#paint0_linear_73_5857)"/>
</g>
<path d="M21.3913 21.2857V18H23.6522V21.2857H27.0435V23.4762H23.6522V26.7619H21.3913V23.4762H18V21.2857H21.3913ZM24.7826 27.8571V24.5714H28.1739V21.2857H36.087L38.1557 23.4762H41.7391C42.9826 23.4762 44 24.4619 44 25.6667V38.8095C44 40.0143 42.9826 41 41.7391 41H23.6522C22.4087 41 21.3913 40.0143 21.3913 38.8095V27.8571H24.7826ZM32.6957 37.7143C35.8157 37.7143 38.3478 35.261 38.3478 32.2381C38.3478 29.2152 35.8157 26.7619 32.6957 26.7619C29.5757 26.7619 27.0435 29.2152 27.0435 32.2381C27.0435 35.261 29.5757 37.7143 32.6957 37.7143ZM29.0783 32.2381C29.0783 34.1767 30.6948 35.7429 32.6957 35.7429C34.6965 35.7429 36.313 34.1767 36.313 32.2381C36.313 30.2995 34.6965 28.7333 32.6957 28.7333C30.6948 28.7333 29.0783 30.2995 29.0783 32.2381Z" fill="white"/>
<defs>
<filter id="filter0_dii_73_5857" x="0" y="0" width="71" height="71" filterUnits="userSpaceOnUse" color-interpolation-filters="sRGB">
<feFlood flood-opacity="0" result="BackgroundImageFix"/>
<feColorMatrix in="SourceAlpha" type="matrix" values="0 0 0 0 0 0 0 0 0 0 0 0 0 0 0 0 0 0 127 0" result="hardAlpha"/>
<feOffset dx="4" dy="6"/>
<feGaussianBlur stdDeviation="5"/>
<feComposite in2="hardAlpha" operator="out"/>
<feColorMatrix type="matrix" values="0 0 0 0 0.262905 0 0 0 0 0.330339 0 0 0 0 0.575553 0 0 0 0.37 0"/>
<feBlend mode="normal" in2="BackgroundImageFix" result="effect1_dropShadow_73_5857"/>
<feBlend mode="normal" in="SourceGraphic" in2="effect1_dropShadow_73_5857" result="shape"/>
<feColorMatrix in="SourceAlpha" type="matrix" values="0 0 0 0 0 0 0 0 0 0 0 0 0 0 0 0 0 0 127 0" result="hardAlpha"/>
<feOffset dx="3" dy="1"/>
<feGaussianBlur stdDeviation="7.5"/>
<feComposite in2="hardAlpha" operator="arithmetic" k2="-1" k3="1"/>
<feColorMatrix type="matrix" values="0 0 0 0 1 0 0 0 0 1 0 0 0 0 1 0 0 0 0.5 0"/>
<feBlend mode="overlay" in2="shape" result="effect2_innerShadow_73_5857"/>
<feColorMatrix in="SourceAlpha" type="matrix" values="0 0 0 0 0 0 0 0 0 0 0 0 0 0 0 0 0 0 127 0" result="hardAlpha"/>
<feOffset dy="-3"/>
<feGaussianBlur stdDeviation="5"/>
<feComposite in2="hardAlpha" operator="arithmetic" k2="-1" k3="1"/>
<feColorMatrix type="matrix" values="0 0 0 0 0 0 0 0 0 0 0 0 0 0 0 0 0 0 0.37 0"/>
<feBlend mode="overlay" in2="effect2_innerShadow_73_5857" result="effect3_innerShadow_73_5857"/>
</filter>
<linearGradient id="paint0_linear_73_5857" x1="57" y1="55" x2="6" y2="4" gradientUnits="userSpaceOnUse">
<stop stop-color="#2C5AFF"/>
<stop offset="1" stop-color="#6B7FC4"/>
</linearGradient>
</defs>
</svg>
